<svg width="290" height="108" viewBox="0 0 290 108" fill="none" xmlns="http://www.w3.org/2000/svg">
<g filter="url(#filter0_d)">
<g filter="url(#filter1_d)">
<path d="M78.224 62.75C79.4707 61.8887 80.5247 60.9027 81.386 59.792C82.2473 58.6813 82.9387 57.4007 83.46 55.95C83.9813 54.4993 84.3553 52.8447 84.582 50.986C84.8087 49.1273 84.922 47.008 84.922 44.628V41.976C84.922 41.432 85.0127 40.956 85.194 40.548C85.398 40.14 85.6587 39.8 85.976 39.528C86.2933 39.2333 86.656 39.018 87.064 38.882C87.472 38.746 87.9027 38.678 88.356 38.678C88.7867 38.678 89.206 38.7573 89.614 38.916C90.022 39.052 90.3847 39.2673 90.702 39.562C91.0193 39.834 91.2687 40.174 91.45 40.582C91.654 40.99 91.756 41.4547 91.756 41.976V44.594C91.756 46.5887 91.654 48.47 91.45 50.238C92.9007 50.782 94.17 51.5187 95.258 52.448C96.3687 53.3547 97.264 54.5107 97.944 55.916C98.6467 57.2987 99.134 58.9533 99.406 60.88C99.678 62.8067 99.7347 65.062 99.576 67.646H92.946C93.3087 64.8353 93.252 62.512 92.776 60.676C92.3 58.84 91.45 57.446 90.226 56.494C89.4553 59.1007 88.4013 61.288 87.064 63.056C85.7493 64.824 84.1967 66.218 82.406 67.238C81.9753 67.4873 81.5333 67.6573 81.08 67.748C80.6267 67.8613 80.1847 67.8953 79.754 67.85C79.3233 67.8047 78.9267 67.6913 78.564 67.51C78.224 67.3513 77.9407 67.1247 77.714 66.83C77.4873 66.558 77.306 66.252 77.17 65.912C77.0567 65.5493 77.0113 65.1753 77.034 64.79C77.0567 64.4047 77.1587 64.042 77.34 63.702C77.544 63.3393 77.8387 63.022 78.224 62.75ZM102.194 69.584V41.024C102.194 39.9133 102.534 39.0747 103.214 38.508C103.894 37.9413 104.687 37.658 105.594 37.658C106.501 37.658 107.294 37.9413 107.974 38.508C108.654 39.0747 108.994 39.9133 108.994 41.024V69.584H102.194ZM125.79 44.186V45.24C125.79 45.4893 125.779 45.7273 125.756 45.954C125.756 46.158 125.745 46.3733 125.722 46.6C128.329 46.7133 130.255 47.5067 131.502 48.98C132.749 50.4533 133.349 52.7427 133.304 55.848H126.946C127.059 54.4427 126.844 53.366 126.3 52.618C125.779 51.87 125.042 51.4733 124.09 51.428C123.115 52.992 121.846 54.1933 120.282 55.032C118.718 55.848 117.109 56.29 115.454 56.358C114.615 56.4033 113.89 56.1993 113.278 55.746C112.689 55.27 112.371 54.6467 112.326 53.876C112.281 53.0827 112.439 52.448 112.802 51.972C113.187 51.4733 113.72 51.1673 114.4 51.054C115.941 50.8047 117.143 50.1473 118.004 49.082C118.865 47.994 119.296 46.7133 119.296 45.24V44.186H115.046C114.638 44.186 114.275 44.1067 113.958 43.948C113.663 43.7667 113.414 43.5513 113.21 43.302C113.006 43.03 112.847 42.7353 112.734 42.418C112.621 42.1007 112.564 41.7833 112.564 41.466C112.564 41.1713 112.609 40.8653 112.7 40.548C112.791 40.208 112.938 39.902 113.142 39.63C113.346 39.358 113.607 39.1427 113.924 38.984C114.241 38.8027 114.615 38.712 115.046 38.712H130.584C131.015 38.712 131.389 38.8027 131.706 38.984C132.023 39.1427 132.284 39.358 132.488 39.63C132.692 39.902 132.839 40.208 132.93 40.548C133.021 40.8653 133.066 41.1713 133.066 41.466C133.066 41.7833 133.009 42.1007 132.896 42.418C132.783 42.7353 132.624 43.03 132.42 43.302C132.216 43.5513 131.955 43.7667 131.638 43.948C131.343 44.1067 130.992 44.186 130.584 44.186H125.79ZM117.086 63.09C116.134 63.09 115.397 62.8407 114.876 62.342C114.377 61.8433 114.128 61.1973 114.128 60.404C114.128 59.6107 114.377 58.9647 114.876 58.466C115.397 57.9673 116.134 57.718 117.086 57.718H137.418C138.483 57.718 139.345 57.7973 140.002 57.956C140.659 58.1147 141.169 58.398 141.532 58.806C141.895 59.214 142.133 59.758 142.246 60.438C142.382 61.0953 142.45 61.934 142.45 62.954V69.584H135.65V63.906C135.65 63.362 135.378 63.09 134.834 63.09H117.086ZM135.344 41.024C135.344 39.9133 135.673 39.0747 136.33 38.508C137.01 37.9413 137.803 37.658 138.71 37.658C139.594 37.658 140.376 37.9527 141.056 38.542C141.736 39.1087 142.076 39.936 142.076 41.024V44.016H143.13C143.651 44.016 144.082 44.1067 144.422 44.288C144.762 44.4693 145.034 44.696 145.238 44.968C145.442 45.24 145.589 45.5573 145.68 45.92C145.771 46.26 145.816 46.6 145.816 46.94C145.816 47.28 145.771 47.6313 145.68 47.994C145.589 48.334 145.442 48.6513 145.238 48.946C145.034 49.218 144.751 49.4447 144.388 49.626C144.048 49.7847 143.629 49.864 143.13 49.864H142.076V56.392H135.344V41.024ZM156.39 37.556C157.478 37.556 158.328 37.862 158.94 38.474C159.575 39.0633 159.892 39.902 159.892 40.99V41.296H164.652C165.491 41.296 166.125 41.5567 166.556 42.078C166.987 42.5993 167.202 43.2227 167.202 43.948C167.202 44.6733 166.975 45.2967 166.522 45.818C166.091 46.3393 165.468 46.6 164.652 46.6H164.584C164.765 47.0533 164.913 47.5293 165.026 48.028C165.139 48.504 165.196 49.0367 165.196 49.626V60.2C165.196 61.696 164.969 62.9993 164.516 64.11C164.063 65.198 163.439 66.1047 162.646 66.83C161.875 67.5327 160.946 68.054 159.858 68.394C158.793 68.7567 157.637 68.938 156.39 68.938C155.143 68.938 153.987 68.7567 152.922 68.394C151.857 68.054 150.927 67.5327 150.134 66.83C149.363 66.1047 148.751 65.198 148.298 64.11C147.845 62.9993 147.618 61.696 147.618 60.2V49.626C147.618 48.5153 147.811 47.5067 148.196 46.6C147.38 46.6 146.745 46.3393 146.292 45.818C145.861 45.2967 145.646 44.6733 145.646 43.948C145.646 43.2227 145.85 42.5993 146.258 42.078C146.689 41.5567 147.323 41.296 148.162 41.296H152.888V40.99C152.888 39.902 153.194 39.0633 153.806 38.474C154.441 37.862 155.302 37.556 156.39 37.556ZM169.276 40.956C169.276 39.868 169.616 39.052 170.296 38.508C170.976 37.9413 171.758 37.658 172.642 37.658C173.073 37.658 173.492 37.7373 173.9 37.896C174.308 38.032 174.659 38.236 174.954 38.508C175.271 38.78 175.521 39.12 175.702 39.528C175.906 39.936 176.008 40.412 176.008 40.956V49.558H177.13C177.651 49.558 178.082 49.6487 178.422 49.83C178.762 50.0113 179.034 50.2493 179.238 50.544C179.442 50.816 179.589 51.1333 179.68 51.496C179.771 51.836 179.816 52.176 179.816 52.516C179.816 52.856 179.771 53.2073 179.68 53.57C179.589 53.91 179.442 54.2273 179.238 54.522C179.034 54.794 178.751 55.0207 178.388 55.202C178.048 55.3833 177.629 55.474 177.13 55.474H176.008V69.584H169.276V40.956ZM156.39 63.43C157.047 63.43 157.625 63.1807 158.124 62.682C158.623 62.1607 158.872 61.356 158.872 60.268V49.354C158.872 48.2433 158.623 47.4613 158.124 47.008C157.648 46.5547 157.07 46.328 156.39 46.328C155.733 46.328 155.155 46.5547 154.656 47.008C154.18 47.4613 153.942 48.2433 153.942 49.354V60.268C153.942 61.356 154.18 62.1607 154.656 62.682C155.155 63.1807 155.733 63.43 156.39 63.43ZM204.194 69.584V41.024C204.194 39.9133 204.534 39.0747 205.214 38.508C205.894 37.9413 206.687 37.658 207.594 37.658C208.501 37.658 209.294 37.9413 209.974 38.508C210.654 39.0747 210.994 39.9133 210.994 41.024V69.584H204.194ZM183.182 62.58C184.61 62.444 185.902 62.172 187.058 61.764C188.237 61.3333 189.234 60.6873 190.05 59.826C190.866 58.9647 191.489 57.8313 191.92 56.426C192.373 55.0207 192.6 53.2753 192.6 51.19V45.682C192.6 45.4327 192.521 45.2287 192.362 45.07C192.226 44.9113 192.022 44.832 191.75 44.832H183.998C183.477 44.832 183.023 44.7527 182.638 44.594C182.275 44.4127 181.969 44.186 181.72 43.914C181.471 43.642 181.278 43.336 181.142 42.996C181.029 42.6333 180.972 42.2707 180.972 41.908C180.972 41.568 181.029 41.228 181.142 40.888C181.278 40.5253 181.471 40.208 181.72 39.936C181.969 39.6413 182.275 39.4033 182.638 39.222C183.023 39.0407 183.477 38.95 183.998 38.95H194.062C195.989 38.95 197.36 39.3807 198.176 40.242C198.992 41.1033 199.4 42.3273 199.4 43.914V51.224C199.4 54.2613 198.992 56.8453 198.176 58.976C197.383 61.1067 196.283 62.852 194.878 64.212C193.473 65.572 191.818 66.5693 189.914 67.204C188.033 67.8387 186.004 68.1787 183.828 68.224C183.42 68.224 183.012 68.1673 182.604 68.054C182.196 67.9407 181.833 67.7593 181.516 67.51C181.221 67.2833 180.983 66.9887 180.802 66.626C180.621 66.2633 180.541 65.8213 180.564 65.3C180.609 64.5747 180.836 63.9627 181.244 63.464C181.675 62.9653 182.321 62.6707 183.182 62.58Z" fill="#82FFE8"/>
</g>
<rect x="12" y="12" width="266" height="84" rx="42" stroke="#82FFE8" stroke-width="3"/>
</g>
<defs>
<filter id="filter0_d" x="0.5" y="0.5" width="289" height="107" filterUnits="userSpaceOnUse" color-interpolation-filters="sRGB">
<feFlood flood-opacity="0" result="BackgroundImageFix"/>
<feColorMatrix in="SourceAlpha" type="matrix" values="0 0 0 0 0 0 0 0 0 0 0 0 0 0 0 0 0 0 127 0"/>
<feOffset/>
<feGaussianBlur stdDeviation="5"/>
<feColorMatrix type="matrix" values="0 0 0 0 0.509804 0 0 0 0 1 0 0 0 0 0.909804 0 0 0 1 0"/>
<feBlend mode="normal" in2="BackgroundImageFix" result="effect1_dropShadow"/>
<feBlend mode="normal" in="SourceGraphic" in2="effect1_dropShadow" result="shape"/>
</filter>
<filter id="filter1_d" x="57.0283" y="17.556" width="173.966" height="72.028" filterUnits="userSpaceOnUse" color-interpolation-filters="sRGB">
<feFlood flood-opacity="0" result="BackgroundImageFix"/>
<feColorMatrix in="SourceAlpha" type="matrix" values="0 0 0 0 0 0 0 0 0 0 0 0 0 0 0 0 0 0 127 0"/>
<feOffset/>
<feGaussianBlur stdDeviation="10"/>
<feColorMatrix type="matrix" values="0 0 0 0 0.509804 0 0 0 0 1 0 0 0 0 0.909804 0 0 0 0.5 0"/>
<feBlend mode="normal" in2="BackgroundImageFix" result="effect1_dropShadow"/>
<feBlend mode="normal" in="SourceGraphic" in2="effect1_dropShadow" result="shape"/>
</filter>
</defs>
</svg>
